<svg width="21" height="21" viewBox="0 0 21 21" fill="none" xmlns="http://www.w3.org/2000/svg">
<path fill-rule="evenodd" clip-rule="evenodd" d="M6.09787 12.6603C6.15883 12.5992 6.23125 12.5507 6.31098 12.5176C6.39071 12.4846 6.47618 12.4675 6.5625 12.4675C6.64882 12.4675 6.73429 12.4846 6.81402 12.5176C6.89375 12.5507 6.96616 12.5992 7.02712 12.6603L10.5 16.1345L13.9729 12.6603C14.0961 12.5371 14.2632 12.4679 14.4375 12.4679C14.6118 12.4679 14.7789 12.5371 14.9021 12.6603C15.0253 12.7836 15.0946 12.9507 15.0946 13.125C15.0946 13.2992 15.0253 13.4664 14.9021 13.5896L10.9646 17.5271C10.9037 17.5882 10.8312 17.6367 10.7515 17.6698C10.6718 17.7028 10.5863 17.7199 10.5 17.7199C10.4137 17.7199 10.3282 17.7028 10.2485 17.6698C10.1688 17.6367 10.0963 17.5882 10.0354 17.5271L6.09787 13.5896C6.03676 13.5286 5.98827 13.4562 5.95519 13.3765C5.9221 13.2967 5.90508 13.2113 5.90508 13.125C5.90508 13.0386 5.9221 12.9532 5.95519 12.8734C5.98827 12.7937 6.03676 12.7213 6.09787 12.6603Z" fill="#616161"/>
<path fill-rule="evenodd" clip-rule="evenodd" d="M10.5 3.28125C10.674 3.28125 10.841 3.35039 10.964 3.47346C11.0871 3.59653 11.1562 3.76345 11.1562 3.9375V15.75C11.1562 15.924 11.0871 16.091 10.964 16.214C10.841 16.3371 10.674 16.4062 10.5 16.4062C10.326 16.4062 10.159 16.3371 10.036 16.214C9.91289 16.091 9.84375 15.924 9.84375 15.75V3.9375C9.84375 3.76345 9.91289 3.59653 10.036 3.47346C10.159 3.35039 10.326 3.28125 10.5 3.28125Z" fill="#616161"/>
</svg>
