<svg width="21" height="21" viewBox="0 0 21 21" fill="none" xmlns="http://www.w3.org/2000/svg">
<path fill-rule="evenodd" clip-rule="evenodd" d="M14.9021 8.33967C14.8412 8.40079 14.7687 8.44927 14.689 8.48236C14.6093 8.51544 14.5238 8.53247 14.4375 8.53247C14.3512 8.53247 14.2657 8.51544 14.186 8.48236C14.1063 8.44927 14.0338 8.40079 13.9729 8.33967L10.5 4.86548L7.02713 8.33967C6.9039 8.4629 6.73677 8.53213 6.5625 8.53213C6.38824 8.53213 6.2211 8.4629 6.09788 8.33967C5.97465 8.21645 5.90542 8.04932 5.90542 7.87505C5.90542 7.70078 5.97465 7.53365 6.09788 7.41042L10.0354 3.47292C10.0963 3.41181 10.1688 3.36332 10.2485 3.33024C10.3282 3.29715 10.4137 3.28012 10.5 3.28012C10.5863 3.28012 10.6718 3.29715 10.7515 3.33024C10.8312 3.36332 10.9037 3.41181 10.9646 3.47292L14.9021 7.41042C14.9632 7.47138 15.0117 7.5438 15.0448 7.62353C15.0779 7.70326 15.0949 7.78873 15.0949 7.87505C15.0949 7.96137 15.0779 8.04684 15.0448 8.12657C15.0117 8.20629 14.9632 8.27871 14.9021 8.33967Z" fill="#616161"/>
<path fill-rule="evenodd" clip-rule="evenodd" d="M10.5 17.7188C10.326 17.7188 10.159 17.6496 10.036 17.5265C9.91289 17.4035 9.84375 17.2365 9.84375 17.0625L9.84375 5.25C9.84375 5.07595 9.91289 4.90903 10.036 4.78596C10.159 4.66289 10.326 4.59375 10.5 4.59375C10.674 4.59375 10.841 4.66289 10.964 4.78596C11.0871 4.90903 11.1563 5.07595 11.1563 5.25L11.1562 17.0625C11.1562 17.2365 11.0871 17.4035 10.964 17.5265C10.841 17.6496 10.674 17.7188 10.5 17.7188V17.7188Z" fill="#616161"/>
</svg>
